<?xml version="1.0" encoding="UTF-8"?>
<svg id="Calque_1" xmlns="http://www.w3.org/2000/svg" xmlns:c2pa="http://c2pa.org/manifest" version="1.1" viewBox="0 0 1000 1000"><metadata><?xpacket begin="" id="W5M0MpCehiHzreSzNTczkc9d"?><x:xmpmeta xmlns:x="adobe:ns:meta/" x:xmptk="XMP Core 6.0.0"><rdf:RDF xmlns:rdf="http://www.w3.org/1999/02/22-rdf-syntax-ns#"><rdf:Description rdf:about="" xmlns:xmp="http://ns.adobe.com/xap/1.0/" xmlns:xmpMM="http://ns.adobe.com/xap/1.0/mm/" xmlns:dc="http://purl.org/dc/elements/1.1/" xmlns:dcterms="http://purl.org/dc/terms/" xmpMM:DocumentID="xmp.did:cb9f5498-bb58-4572-8043-8c369e6bfb9b" xmpMM:InstanceID="xmp.iid:cb9f5498-bb58-4572-8043-8c369e6bfb9b" dcterms:provenance="https://cai-manifests.adobe.com/manifests/urn-c2pa-bbe20a79-8ceb-449b-9bd3-2749a4777376-adobe"> </rdf:Description></rdf:RDF></x:xmpmeta>
<?xpacket end="w"?></metadata>
  <!-- Generator: Adobe Illustrator 30.8.2, SVG Export Plug-In . SVG Version: 2.1.4 Build 7)  -->
  <defs>
    <style>
      .st0 {
        fill: #55a270;
      }

      .st1 {
        fill: #ebbe5c;
      }

      .st2 {
        fill: #62b47e;
      }

      .st3 {
        fill: #a9acef;
      }

      .st4 {
        fill: #f4cc71;
      }

      .st5 {
        fill: #9599ea;
      }
    </style>
  </defs>
  <polygon class="st2" points="70.6 486.6 213.8 512 213.8 718.7 70.6 693.3 70.6 486.6"/>
  <polygon class="st0" points="213.8 512 356.9 486.6 356.9 693.3 213.8 718.7 213.8 512"/>
  <polygon class="st4" points="356.9 486.6 500 512 500 718.7 356.9 693.3 356.9 486.6"/>
  <polygon class="st1" points="500 512 643.1 486.6 643.1 693.3 500 718.7 500 512"/>
  <polygon class="st5" points="643.1 486.6 786.2 512 786.2 718.7 643.1 693.3 643.1 486.6"/>
  <polygon class="st3" points="786.2 512 929.4 486.6 929.4 693.3 786.2 718.7 786.2 512"/>
  <polygon class="st2" points="70.6 281.3 213.8 306.7 213.8 513.4 70.6 488 70.6 281.3"/>
  <polygon class="st0" points="213.8 306.7 356.9 281.3 356.9 488 213.8 513.4 213.8 306.7"/>
  <polygon class="st4" points="356.9 281.3 500 306.7 500 513.4 356.9 488 356.9 281.3"/>
  <polygon class="st1" points="500 306.7 643.1 281.3 643.1 488 500 513.4 500 306.7"/>
  <polygon class="st5" points="643.1 281.3 786.2 306.7 786.2 513.4 643.1 488 643.1 281.3"/>
  <polygon class="st3" points="786.2 306.7 929.4 281.3 929.4 488 786.2 513.4 786.2 306.7"/>
</svg>