<?xml version="1.0"?>
<svg fill="#EB6755" id="Calque_2" data-name="Calque 2" xmlns="http://www.w3.org/2000/svg" viewBox="0 0 163.12 142.65">
  <defs>
    
  </defs>
  <g id="Calque_1-2" data-name="Calque 1">
    <g>
      <path class="cls-1" d="M69.91,105.58c.28.96,1.53,1.4,4.44.81,4.11-1.04,7.73-4.01,9.22-8.02.43-.75,1.56-6.33,2.3-4.32,2.3,8.52-6.88,17-15.28,15.38-1.59-.22-2.81-.84-4.31-.55"></path>
      <path class="cls-2" d="M110.82,20.82c-.16-.47-.49-.95-.95-1.27,0,.01,0,.03,0,.04-.36.74-2.5,1.15-3.13,2.17-1.14,1.37,2.22,2.39,3.48,2.75.14.02.28.05.42.08.43-.83.59-2.58.19-3.77Z"></path>
      <path class="cls-2" d="M123.02,44.68c.05-4.65-.61-9.21-1.37-13.67-.77-5.78-1.8-11.6-5.12-16.5-2.01-3.29-4.6-6.27-7.91-8.3-5.35-3.34-11.5-5.29-17.8-5.75-5.87-.46-11.75-.79-17.59.13-7.91,1-14.32,3.43-21.01,7.66-6.69,3.99-12.57,9.23-18.24,14.54-6.57,5.74-12.99,11.71-19.74,17.25-3.7,2.87-7.62,5.42-11.3,8.34-1.17.96-2.19,2.01-2.62,2.86-.61.99-.37,2.13,1.21,1.72,2.23-.59,4.03-2.22,5.98-3.4,7.39-4.97,17.01-4.1,25.08-1.34,6.27,1.99,9.78,5.99,8.91,12.76-.48,3.8-2.05,7.38-3.71,10.81-2.65,5.22-5.15,10.53-8.55,15.34-3.5,4.87-7.73,9.24-10.63,14.5-4.17,7.5-5.86,12.99,5.23,11.51,3.85-.45,7.66-.72,11.5.04,3.01.51,5.92,1.27,8.86,2.03,3.3.82,6.66,1.6,9.9.71,2.64-.73,5.03-2.28,7.24-3.83,1.57-1.01,3.43-2.85,4.97-3.21l3.63-3.3c-.46-1.59,1.78-4.61,3.53-6.64,1.28-1.6,2.63-3.22,4.25-4.47,1.71-1.28,3.96-2.73,4.67-4.48.78-1.75.99-3.21,2.28-5.06,1.18-1.74,2.61-3.45,3.58-5.3,2.63-5.12-.55-4.18-3.17-1.13-3.32,3.8-6.29,8-9.37,11.95-3.32,4.15-6.68,8.34-9.97,12.48-2.44,3.03-5.19,5.91-8.39,8.12-6.12,4.26-11.56,1.37-18.01-.01-3.37-.78-6.85-1.25-10.32-1.19-4.93,0-13.42,2.36-9.15-5.49,3.28-5.62,8.59-10.42,12.24-15.91,1.96-2.66,2.98-6.02,4.44-8.82,2.66-4.33,4.64-8.81,6.32-13.62,3.28-9.32.83-15.93-8.58-19.63l-.05-.02c-2.38-.93-4.99-1.6-7.5-2.16-2.58-.71-6.63-.65-7.39-2.75-.14-2.08,2.99-4.14,4.44-5.61,3.29-2.92,6.55-5.8,9.84-8.73,3.45-3.13,6.67-6.51,10.27-9.45,4.82-3.83,9.94-7.27,15.41-10.09,2.71-1.38,5.52-2.25,8.47-2.9,5.66-1.46,11.48-1.9,17.29-1.53,10.29.23,21.74,2.9,28.19,11.53.63.81,4.18,5.87,1.9,5.51-2.13-.94-4-3.02-6.03-4.37-7.48-5.59-17.4-6.32-26.36-4.74-8.21,1.07-15.95,4.41-22.77,9.04-5.07,3.47-9.64,8.54-9.37,15.07.19,5.52.82,11.48,3.82,16.23,2.23,3.33,5.4,5.77,8.55,8.31,4.24,3.61,9.32,5.98,14.61,7.53,2.21.71,4.35,1.5,6.6,2.16,2.15.62,4.31,1.26,6.45.82,3.36-1.03-6.02-3.56-7.14-4.13-2.47-.93-5.02-1.76-7.53-2.57-8.29-2.75-17.12-8.24-20.15-16.83-1.56-4.55-2.63-9.58-1.86-14.37.91-4.63,4.75-7.59,8.39-10.28,5.29-3.92,11.65-6.2,17.95-7.76,7.4-1.79,14.4-1.35,21.58,1.09,1.67.57,8.31,1.89,7.98,4.14.46.32.8.8.95,1.27.4,1.19.23,2.94-.19,3.77,3.36.62,6.88,1.54,8.15,5.12.85,2.1,1.03,4.89,1.25,7.36.31,3.92.36,7.94-.32,11.82-.6,3.81-2.98,7.2-2.55,11.12.41,3.63.33,7.74,2.62,10.76.6.71,1.61,1.79,2.51,1.56.74-.63-.51-2.69-1.04-4.27-1.62-3.96-1.65-8.66-.41-12.74,1.19-3.44,2.24-6.95,2.17-10.63Z"></path>
      <path class="cls-3" d="M159.56,92.51c-2.07-1.11-4.53-.94-6.75-1.63-3.55-1.07-4.55-1.1-8.17-.25-3.81.81-7.7,1.25-11.23,3.12-1.22.57-2.34,1.26-3.48,1.91-.54.3-1.51.82-1.93.65-1.16-.86.82-3.78,1.27-4.84.08-.17.16-.34.23-.51-1.21.1-2.43.31-3.6.46-.41,1.96-1.75,3.67-2.38,5.65-.81,2.29-.2,4.68-.44,7.09-.28,2.28-.7,4.57-.17,6.86.7,3.4,2.83,6.96,6.13,8.43,2.26.91,4.73.77,7.19.25,2.77-.62,5.02-1.94,7.74-2.91,3.72-1.36,7.62-2.32,11.36-3.62,3.89-1.44,6.78-3.64,7.26-7.98.32-1.76.54-3.56.53-5.35-.03-2.74-1.08-5.92-3.56-7.33ZM127.66,101.23c.57-.57,1.36-.98,2.06-1.4,3.56-2.01,7.04-4.55,11.13-5.26,1.31-.22,2.64-.34,3.87-.51,1.16-.15,2.23-.5,3.38-.65,1.4-.23,3.02.53,1.35,1.82-1.36,1-2.98,1.69-4.5,2.49-3.69,1.73-7.46,3.34-11.25,4.79l-.05.02c-1.42.51-2.93.78-4.45.7-1.45-.13-2.63-.82-1.54-2ZM140.52,104.27l-.03.04c-.5.64-1.39,1.49-2.24,1.53-1.06.08-1.53-1.17-.98-1.97.58-.77,2.03-1.3,2.9-1.13.71.19.79,1,.35,1.53ZM135.08,106.33v.04c-.59,1.49-3.35,2.14-4.53.98-.67-.49-1.38-1.92-.4-2.35,1.08-.37,5.47-.6,4.93,1.33ZM125.24,108.45c-.49-.85-.38-2.31.08-3.23.34-.69,1.16-.73,1.83-.56,1.35.34,2.4,1.14,1.69,2.64l-.02.05c-.5,1.55-2.46,2.85-3.58,1.11ZM135.25,117.2c.06.24-1.61.29-2.44.17-2.77-.19-6.07-1.73-6.7-4.57-.3-2.01,2.19-2.37,3.51-1.44,1.15.68,1.69,2.07,2.39,3.11.55.89,1.41,1.57,2.31,2.05.32.22.87.38.94.67h0ZM134.28,109.03c1.79-.7,4.36.88,4.39,2.64-.08,1.38-1.87,2.09-3.06,2.13h-.05c-2.33.1-3.91-3.97-1.29-4.76ZM140.38,114.72c-.3.33-1.74.5-2.13.95v.02c-.21.33.04.86-.39,1.07-.56.3-2.03.11-2.24-.36-.17-.69.78-1.12,1.49-1.46.82-.38,2.07-.6,2.71-.53.21.02.76.06.56.32ZM142.16,110.74c-1.31-.21-2.93-1.53-2.93-2.65.04-.62.71-.92,1.27-1.01.89-.14,1.71.19,2.29.88l.04.04c.84.94,1.18,3.04-.67,2.74ZM142.23,104.38c-.59-.26-.95-.93-.82-1.56.32-1.28,2.49-1.83,3.59-2.53,2.34-1.3,4.87-2.84,6.8-4.76.86-.82,1.48-1.55,2.09-1.48,1.1.37,1.18,2.83,1.11,3.79-.04,1.1-.95,1.89-2.02,2.08-1.55.36-3.15-.11-4.48.65l-.04.02c-1.53.9-4.17,4.51-6.24,3.78ZM150.43,106.72c-.18,1.39-1.4,2.42-2.73,2.7h-.06c-1.91.46-3.88-1.6-3.48-3.46.44-1.35,2.75-2.15,4.06-2.19,1.53-.06,2.41,1.57,2.21,2.95ZM155.27,110.46h-.03c-.33.1-.8-.33-1.1-.56-.29-.25-.62-.49-.72-.85-.11-.68,1.12-1.16,1.63-1.09.49.16.41.81.47,1.24,0,.4.07,1.07-.24,1.26ZM156.66,104.14c-.31,1.45-1.97,2.29-3.34,1.83l-.05-.02c-1.83-.59-2.47-3.42-.79-4.59,2.37-1.91,4.71.06,4.18,2.77ZM159.33,103.17h-.02c-.67-.5-1.02-2.04-1.41-2.91-.38-1-.77-1.87-1.28-2.49-.45-.54-.93-1.06-1.35-1.61-.52-.57-.57-1.6.17-2.04.87-.32,1.78.46,2.47,1.26,1.22,1.55,1.63,3.87,1.74,5.79.07.76-.01,2.16-.32,2Z"></path>
      <path class="cls-1" d="M130.38,88.19c.37-2.7-1.03-5.07-1.64-7.59-.58-2.31-1.25-5.03-2.83-6.83-1.07-1.12-1.85-.63-1.56.91.31,2.1,2.14,4.01,2.18,6.04-.43,5.46-1.23,5.28-6.44,6.3-3.99.88-8.33,3.76-12.22,1.34-2.68-1.5-4.38-4.19-6.1-6.64-1.44-2.05-2.98-4.06-4.44-6.12-.51-.69-2.08-2.67-2.63-1.49-.71,2.6,2.11,5.64,3.54,7.76,1.06,1.47,1.91,2.91,2.95,4.35,1.3,1.95,3.02,3.36,4.8,4.77,2.85,2.17,2.88,5.97,3.71,9.26.6,2.56,1.18,5.05,1.41,7.66.29,3.82.53,7.8,2.57,11.17.86,1.49,2.03,2.84,3.58,3.58,1.36.69,3.14.68,4.52.89.6.1,1.11.28,1.51.67,1.44,1.46,1.43,6.12,1.01,7.78-.73,2.64-3.94,3.13-6.31,3.48-5.13.52-12.3,4.65-15.24-1.8-1.21-3.24-1.82-6.77-4.92-8.8-.69-.47-1.45-.84-2.22-1.19-2.05-.9-5.07-2.26-7.66-2.26-1.53,0-2.63.79-.63,1.66.89.39,1.84.63,2.88.93,2.78.89,5.74,1.91,7.55,4.31,1.32,1.8,1.71,4.17,2.44,6.23,1.06,3.29,4.22,5.52,7.65,5.52,2.26.08,4.48-.69,6.64-1.24h.05c3.4-1.03,7.46-.39,10.31-2.85,2.09-1.73,2.6-4.49,2.46-7.07-.05-1.91-.3-4.34-1.39-5.83-1.6-2.66-4.62-2.24-7.24-3.2-2.84-1-4.08-4.05-4.37-6.84-.35-2.42-.5-4.89-.69-7.35-.13-3.02-1.25-5.83-1.62-8.79-.08-1.49.13-3.05,1.19-4.13,2.06-1.98,5.15-2.86,7.92-3.43,2.08-.45,5.09-.72,4.83,1.9,0,.06-.02.11-.03.16,1.18-.16,2.39-.36,3.6-.46.39-.89.73-1.82.87-2.78ZM118.25,89.44c-.55-.68,1.54-1.46,1.98-1.44.27,0,.66.12.71.41v.03c-.08.92-1.95,1.43-2.69.99Z"></path>
      <path class="cls-1" d="M117.43,35.28c-.37-.87-.8-1.75-.88-2.71-.1-1,.17-2.08.03-3.07-.04-.56-.46-1.65-1.11-.95-.4.45-.59,1.41-.92,1.96-.38.76-1.21,1.2-1.63.23-.31-.69-.14-1.79-.51-2.53-.44-1.01-1.64-1.08-1.95.14-.25.76-.11,1.95-.32,2.71-.23.99-1.1,1.16-1.75.44-.96-.84-1.1-3.57-2.27-4.14-.74-.08-1.15.87-1.32,1.77-.27,1.2.59,2.3.61,3.48-.01,1.03-.87,1.7-1.63,2.62-.92,1-3.14,4.64-1.23,5.42,1.27.41,2.33.02,2.89-1.41.44-.92,1.02-1.79,1.81-2.45,1.57-1.29,3.87-1.82,5.91-1.67,2.04.26,2.85,2.55,3.15,4.46.17,1.15-.12,2.52-1.09,3.24-.54.31-1.04.06-1.77-.48-.04-.04-.09-.08-.13-.11.27-1.57.03-3.44-1.53-4.28-.32-.17-.67-.27-1.01-.31-.85-.48-2.08-.02-2.81.55-1.06.81-1.45,1.99-1.56,3.43-.06.59-.06,1.45-.43,1.86l-.02.02c-.48.45-1.39.23-1.9.68-1.54,1.7,2.99,4.57,4.64,4.47,2.29.11,4.87-1.26,6.59-2.9,1.35-1.38,1.92-3.25,2.21-5.25.27-1.77.69-3.6-.07-5.2Z"></path>
      <path class="cls-1" d="M82.89,35.28c-.37-.87-.8-1.75-.88-2.71-.1-1,.17-2.08.03-3.07-.04-.56-.46-1.65-1.11-.95-.4.45-.59,1.41-.92,1.96-.38.76-1.21,1.2-1.63.23-.31-.69-.14-1.79-.51-2.53-.44-1.01-1.64-1.08-1.95.14-.25.76-.11,1.95-.32,2.71-.23.99-1.1,1.16-1.75.44-.96-.84-1.1-3.57-2.27-4.14-.74-.08-1.15.87-1.32,1.77-.27,1.2.59,2.3.61,3.48-.01,1.03-.87,1.7-1.63,2.62-.92,1-3.14,4.64-1.23,5.42,1.27.41,2.33.02,2.89-1.41.44-.92,1.02-1.79,1.81-2.45,1.57-1.29,3.87-1.82,5.91-1.67,2.04.26,2.85,2.55,3.15,4.46.17,1.15-.12,2.52-1.09,3.24-.54.31-1.04.06-1.77-.48-.04-.04-.09-.08-.13-.11.27-1.57.03-3.44-1.53-4.28-.32-.17-.67-.27-1.01-.31-.85-.48-2.08-.02-2.81.55-1.06.81-1.45,1.99-1.56,3.43-.06.59-.06,1.45-.43,1.86l-.02.02c-.48.45-1.39.23-1.9.68-1.54,1.7,2.99,4.57,4.64,4.47,2.29.11,4.87-1.26,6.59-2.9,1.35-1.38,1.92-3.25,2.21-5.25.27-1.77.69-3.6-.07-5.2Z"></path>
      <path class="cls-1" d="M84.42,124.87c-.23-.5-.48-1.07-.65-1.61-.38-1.18-.25-2.37.31-2.43,1.7.19,2.63,3.74,3,5.17.43,1.69.9,3.29,1.06,5.05.12,1.28.18,2.55.24,3.82.39,5.28-2.22,6.71-6.98,7.08-2.53.31-5.08.38-7.66.53-4.13.33-8.05.41-11.81-1.6-1.13-.56-2.31-1.27-3.44-1.97-1.17-.74-2.32-1.64-2.93-2.9-.73-1.49-.78-3.52-1.07-5.39-.28-1.92-.79-3.79-1.32-5.61-.52-1.67-1.29-3.16-1.1-4.84.02-.63.45-1.62,1.17-1.2.68.48,1.02,1.93,1.4,3.07.64,1.88,1.57,3.73,2.11,5.62.71,2.2.74,4.7,1.7,6.77.93,1.98,3.05,2.98,4.96,3.86,2.62,1.26,5.38,1.66,8.24,1.56,3.51.02,6.94-.25,10.43-.64,2.94-.32,4.36-1.37,4.21-4.56-.07-1.93-.6-4.07-.88-6.02-.14-1.45-.24-2.19-.97-3.69l-.02-.04Z"></path>
      <path class="cls-1" d="M84.73,60.58c-.91-.99-3.55-3.37-2.78-4.73.32-.64,1.57-1.22,2.58-1.48,2.01-.68,4.17-.27,6.26-.18,1.99.09,4.08-.19,5.95-.5,1.88-.36,5.18-.74,4.22,2.23-.55,1.68-1.99,3.15-3.21,4.46-1.45,1.5-2.92,3.05-4.55,4.37-1.8,1.45-3.17,1.29-4.67-.32-1.2-1.28-2.46-2.6-3.77-3.82l-.04-.04ZM95.95,57.85c-.21-.48-1.21-.53-2.44-.48-.96.04-2.04.07-3.02-.01-.69-.05-1.36-.14-1.95-.21-.74-.07-1.29-.23-1.84.02-.97.72,2.04,2.96,2.67,3.49,1.94,1.63,3.76,1.58,5.32-.26.55-.65,1.49-1.79,1.26-2.52v-.03Z"></path>
      <path class="cls-1" d="M147.68,67.71c-2.71-2.38-6.3-3.43-9.55-4.91-1.89-.79-3.56-2.24-5.64-2.3-1.42-.01-3.02.67-3.93,2.04-.86,1.24-1.08,2.78-1.31,4.25-.19,1.27-.43,3.64-1.6,3.91-1.33-.51-.46-4.64-.33-5.98.37-2.88,1.36-5.29,4.27-6.36,3.61-1.44,7.01.9,10.28,2.19,2.85,1.04,5.61,2.26,8.13,3.97,2.77,1.76,4.44,3.56,4.61,6.96.06,1.13,0,2.52-.44,3.52-.4.85-.91,1.41-1.62,1.15-1.15-.92-.1-3.49-.55-4.97-.28-1.39-1.22-2.52-2.28-3.42l-.04-.04Z"></path>
      <path class="cls-1" d="M142.02,80.26c0-.63,2.1-1.05,2.63-1.26.48-.14.99-.31,1.43-.5,1.21-.57,1.52-1.04,2.54-1.5.33-.2.85-.33.96-.72-.19-.68-1.34-.81-2.23-.77-1.62.05-3.27.86-4.87,1.28-.97.27-1.93.4-2.93.49-.86.09-1.78.16-2.63.36-1.76.39-3.41,1.32-4.98,2.02-.7.31-1.46.64-2.11.99-.37.21-.58.39-.53.55.21.44,1.8.45,2.51.48,1.45,0,3.02.08,4.39.53,0,0,.02,0,.02,0,1.66-1.11,3.59-2.47,5.8-1.96Z"></path>
      <path class="cls-3" d="M145.85,83.57c-.6-.55-1.2-1.14-1.83-1.64-.87-.7-1.84-1.19-1.98-1.55-.02-.04-.02-.08-.02-.12-2.2-.51-4.14.85-5.8,1.96,1.01.32,1.95.82,2.9,1.3,1.27.64,2.56,1.29,3.66,2.13,1.91,1.35,4.56,4.72,7.04,2.98l.02-.02c1.33-1.73-2.84-3.84-3.98-5.04Z"></path>
      <path class="cls-1" d="M72.29,23.45c-1.17.1-2.31.33-3.49.5-.72.13-2.1.18-2.32-.22-.14-.17-.11-.41.05-.69.53-.94,1.72-1.46,2.92-1.84,1.49-.52,3.3-.57,4.97-.73,2.53-.17,5.17-.53,7.73-.49.94.02,1.84.1,2.48.35,1.95.78,1,1.9-.88,2.21-.87.17-1.84.21-2.82.32-1.49.13-2.63.29-3.99.4-1.54.14-3.04,0-4.61.18h-.04Z"></path>
      <path class="cls-1" d="M94.22,73.17c-1.92.23-1.39-1.89-.46-2.81.83-.94,1.98-1.43,3.12-2.2.91-.62,1.82-1.28,2.83-1.72,1.71-.78,3.58-1.2,5.27-2.18,1.34-.8,2.38-1.85,3.57-2.92.65-.62,4.93-4.9,4.38-2.02-.64,2.06-2.19,4.25-3.79,5.64-1.49,1.19-3.54,2.06-5.2,3.13-2.11,1.3-4.12,2.49-6.34,3.6-1.05.51-2.24,1.27-3.33,1.49h-.04Z"></path>
      <path class="cls-1" d="M97.45,51.34c-1.17-.34-.8-2.16-1.21-3.09-.2-.59-.62-1.07-1.07-1.5-.79-.9-3.05-2.04-2.68-3.03.41-.63,1.45-.41,2.18-.28,1.88.4,3.7,1.69,4.46,3.27.52,1.1.54,2.45-.03,3.52-.31.61-.99,1.2-1.63,1.11h-.03Z"></path>
    </g>
  </g>
</svg>