<svg xmlns="http://www.w3.org/2000/svg" version="1.1" viewBox="0 0 1120 1130" role="img"><title>Studio Mille Pages</title><defs>
    <style>
      .st0 {
        fill: #55a270;
      }

      .st1 {
        fill: #f8f5f4;
      }

      .st1, .st2 {
      }

      .st3 {
        fill: #ebbe5c;
      }

      .st4 {
        fill: #62b47e;
      }

      .st5 {
        fill: #a9acef;
      }

      .st2 {
        fill: #534741;
      }

      .st6 {
        fill: #f4cc71;
      }

      .st7 {
        fill: #9599ea;
      }
    </style>
  </defs>
  <g>
    <polygon class="st4" points="50 400 220 430 220 670 50 640 50 400" />
    <polygon class="st0" points="220 430 390 400 390 640 220 670 220 430" />
    <polygon class="st6" points="390 400 560 430 560 670 390 640 390 400" />
    <polygon class="st3" points="560 430 730 400 730 640 560 670 560 430" />
    <polygon class="st7" points="730 400 900 430 900 670 730 640 730 400" />
    <polygon class="st5" points="900 430 1070 400 1070 640 900 670 900 430" />
    <g class="st1" transform="translate(91.2 572.3) rotate(10) scale(1 1) skewX(9.7)" aria-hidden="true"><path transform="translate(0.000 0.000) scale(0.12000 -0.12000)" d="M361 790C151 790 45 690 45 547C45 418 110 323 310 293L376 283C431 275 447 256 447 233C447 201 422 178 372 178C315 178 283 209 283 257H35C35 98 152 -10 369 -10C584 -10 695 93 695 237C695 375 624 461 425 495L359 507C310 515 293 531 293 552C293 581 318 602 356 602C403 602 432 575 432 530H680C680 685 570 790 361 790Z" /></g><g class="st1" transform="translate(262.4 587.5) rotate(-10) scale(1 1) skewX(-9.7)" aria-hidden="true"><path transform="translate(0.000 0.000) scale(0.12000 -0.12000)" d="M30 780V550H235V0H475V550H680V780Z" /></g><g class="st1" transform="translate(430.1 572.1) rotate(10) scale(1 1) skewX(9.7)" aria-hidden="true"><path transform="translate(0.000 0.000) scale(0.12000 -0.12000)" d="M54 780V303C54 95 167 -10 374 -10C581 -10 694 95 694 303V780H464V323C464 251 429 219 379 219C329 219 294 251 294 323V780Z" /></g><g class="st1" transform="translate(597.6 588.4) rotate(-10) scale(1 1) skewX(-9.7)" aria-hidden="true"><path transform="translate(0.000 0.000) scale(0.12000 -0.12000)" d="M60 780V0H363C614 0 760 154 760 390C760 626 614 780 363 780ZM300 225V555H354C453 555 512 486 512 390C512 294 453 225 354 225Z" /></g><g class="st1" transform="translate(793.4 576.2) rotate(10) scale(1 1) skewX(9.7)" aria-hidden="true"><path transform="translate(0.000 0.000) scale(0.12000 -0.12000)" d="M60 780V0H300V780Z" /></g><g class="st1" transform="translate(936.6 588.5) rotate(-10) scale(1 1) skewX(-9.7)" aria-hidden="true"><path transform="translate(0.000 0.000) scale(0.12000 -0.12000)" d="M403 561C482 561 528 496 528 390C528 284 482 219 403 219C324 219 278 284 278 390C278 496 324 561 403 561ZM403 790C173 790 30 643 30 390C30 137 173 -10 403 -10C633 -10 776 137 776 390C776 643 633 790 403 790Z" /></g></g>
  <g class="st2" transform="translate(212.7 300)" aria-hidden="true"><path transform="translate(0.000 0.000) scale(0.15625 -0.15625)" d="M82 31Q82 47 85.0 52.0Q88 57 97 64Q113 75 137.0 87.0Q161 99 186.0 111.0Q211 123 234.0 134.0Q257 145 272 154Q294 193 303.0 237.0Q312 281 312 327V356Q312 364 312.0 372.0Q312 380 313 388Q314 390 315.0 395.0Q316 400 317.0 406.0Q318 412 318.5 417.5Q319 423 319 426L331 446L332 483Q332 488 330.5 494.5Q329 501 319 514L336 569Q336 577 334.5 582.0Q333 587 331 592Q329 594 327.0 600.0Q325 606 325 612V631L336 709L325 777Q325 800 335.5 823.0Q346 846 346 868L341 907Q341 923 344.5 941.0Q348 959 352.5 977.5Q357 996 361.0 1015.5Q365 1035 365 1054Q361 1060 353.0 1070.0Q345 1080 341 1088Q341 1101 338.5 1121.0Q336 1141 328.5 1159.5Q321 1178 308.5 1191.0Q296 1204 277 1204L194 1197H173Q152 1200 133.5 1203.0Q115 1206 100.5 1212.5Q86 1219 77.5 1231.0Q69 1243 69 1265Q69 1283 71.0 1292.0Q73 1301 79.0 1305.0Q85 1309 95.5 1310.5Q106 1312 123 1315L147 1325H180Q248 1325 310.0 1316.5Q372 1308 438 1308Q454 1308 465.5 1311.5Q477 1315 490 1315Q544 1294 571.5 1260.0Q599 1226 613 1171L614 1159Q617 1139 620.0 1127.0Q623 1115 629.5 1106.0Q636 1097 648.0 1088.5Q660 1080 682 1069L680 1048Q680 1033 683.5 1018.5Q687 1004 692.5 989.5Q698 975 703.0 960.0Q708 945 711 927Q711 924 712.0 916.5Q713 909 714.5 901.0Q716 893 717.0 886.0Q718 879 718 877Q724 862 735.5 843.5Q747 825 759.0 806.0Q771 787 783.0 768.0Q795 749 803 734Q829 679 853.0 623.0Q877 567 900 510L929 462Q935 451 938.0 438.5Q941 426 945.5 416.0Q950 406 957.0 399.5Q964 393 978 393Q993 393 999.0 396.0Q1005 399 1007.0 406.0Q1009 413 1010.0 422.5Q1011 432 1016 446Q1016 448 1025.5 454.0Q1035 460 1037 462Q1056 487 1069.0 515.5Q1082 544 1092.5 574.5Q1103 605 1112.0 636.0Q1121 667 1132 697Q1132 698 1136.5 708.0Q1141 718 1146.5 730.5Q1152 743 1157.5 755.0Q1163 767 1165 772Q1180 810 1189.5 842.0Q1199 874 1215 908L1222 927Q1242 965 1264.5 1006.5Q1287 1048 1313 1074Q1313 1090 1310.5 1097.0Q1308 1104 1308 1109Q1308 1114 1310.0 1124.5Q1312 1135 1315.0 1146.5Q1318 1158 1320.0 1167.5Q1322 1177 1322 1180Q1324 1184 1326.5 1196.0Q1329 1208 1329 1213L1350 1235Q1350 1238 1351.0 1245.5Q1352 1253 1352.5 1260.5Q1353 1268 1354.0 1274.0Q1355 1280 1355 1282Q1361 1295 1375.5 1305.5Q1390 1316 1407.5 1322.5Q1425 1329 1442.0 1332.5Q1459 1336 1471 1336Q1491 1336 1511 1325Q1532 1318 1554 1318L1644 1336Q1680 1336 1707.5 1334.5Q1735 1333 1773 1325Q1803 1320 1803 1292Q1803 1266 1785.0 1251.5Q1767 1237 1740.0 1227.5Q1713 1218 1682.0 1211.5Q1651 1205 1624.0 1196.5Q1597 1188 1579.0 1174.5Q1561 1161 1561 1138Q1561 1117 1568.0 1097.5Q1575 1078 1583.5 1058.0Q1592 1038 1599.0 1017.5Q1606 997 1606 976L1590 882V682Q1595 674 1595 661L1599 554L1621 516V452Q1621 450 1621.5 442.5Q1622 435 1623.0 426.0Q1624 417 1625.0 409.0Q1626 401 1626 398Q1628 382 1631.0 351.5Q1634 321 1638.5 287.0Q1643 253 1649.5 222.0Q1656 191 1666 175Q1677 156 1696.0 146.5Q1715 137 1737.5 131.0Q1760 125 1783.0 121.0Q1806 117 1824.5 109.5Q1843 102 1855.0 89.0Q1867 76 1867 52Q1867 32 1857.0 21.0Q1847 10 1832.0 4.0Q1817 -2 1800.0 -3.5Q1783 -5 1770 -5H1718Q1697 -5 1673.5 -4.0Q1650 -3 1629.0 -1.0Q1608 1 1592.0 3.5Q1576 6 1569 10Q1566 12 1549 12H1530L1422 -5L1329 5Q1325 5 1317.5 1.0Q1310 -3 1308 -5Q1290 -5 1272.0 -2.0Q1254 1 1239.5 8.0Q1225 15 1215.5 26.5Q1206 38 1206 55Q1206 77 1235 85Q1247 86 1258.0 87.0Q1269 88 1282 88Q1319 88 1352.5 94.5Q1386 101 1408 130Q1409 135 1411 139Q1412 142 1413.0 145.0Q1414 148 1414 149Q1414 151 1415.5 154.0Q1417 157 1419 161L1426 185Q1432 208 1434.0 231.0Q1436 254 1436 277Q1436 306 1433.5 333.5Q1431 361 1426 391L1424 400Q1422 406 1422.0 415.5Q1422 425 1422 436Q1422 451 1422.0 468.5Q1422 486 1420.5 501.5Q1419 517 1416.0 529.5Q1413 542 1408 548Q1410 553 1410.0 555.5Q1410 558 1410 562V578L1388 742L1393 863Q1393 872 1392.0 886.5Q1391 901 1390.5 915.5Q1390 930 1389.0 940.5Q1388 951 1388 951Q1388 960 1387.5 977.0Q1387 994 1384.0 1011.0Q1381 1028 1374.0 1041.0Q1367 1054 1355 1054Q1351 1054 1347.5 1052.0Q1344 1050 1344 1048L1329 979Q1315 973 1312.5 959.0Q1310 945 1310 929Q1310 921 1310.0 913.5Q1310 906 1308 900Q1292 871 1271.5 847.5Q1251 824 1235 798Q1230 793 1226.0 780.5Q1222 768 1218.0 753.5Q1214 739 1211.0 726.5Q1208 714 1206 708Q1193 673 1176.0 638.0Q1159 603 1139 569L1132 554Q1130 552 1129.0 538.5Q1128 525 1126 521Q1123 519 1117.5 514.0Q1112 509 1106.0 503.0Q1100 497 1095.0 491.5Q1090 486 1087 484L1073 412Q1070 398 1063.0 386.0Q1056 374 1048.5 362.5Q1041 351 1034.0 339.5Q1027 328 1023 315Q1023 313 1022.0 305.0Q1021 297 1019.5 287.0Q1018 277 1017.0 268.0Q1016 259 1016 256Q1016 253 1012.5 236.5Q1009 220 1004.0 201.0Q999 182 994.5 166.5Q990 151 988 149L964 121Q962 118 962 102Q962 94 961.0 83.5Q960 73 956.0 64.0Q952 55 945.5 49.0Q939 43 929 43Q920 43 910.5 50.0Q901 57 891.5 68.0Q882 79 873.5 91.0Q865 103 858 114Q858 116 854.0 121.5Q850 127 850 130Q831 162 825.0 198.0Q819 234 808 272Q806 281 795.5 301.0Q785 321 772.0 343.5Q759 366 747.0 387.0Q735 408 729 420Q706 465 682.0 510.0Q658 555 635 600L613 670Q584 735 552.0 791.5Q520 848 488 908Q486 912 481.0 919.0Q476 926 474 927L452 951Q449 957 448.5 964.0Q448 971 447.0 977.0Q446 983 442.0 987.0Q438 991 428 991Q423 991 421.5 990.0Q420 989 417 984L405 868V820Q405 786 405.0 753.5Q405 721 407 687Q410 622 410 554Q411 551 413 545Q415 540 417.0 531.5Q419 523 422 510L414 490Q414 473 409.5 460.5Q405 448 405 422V405L424 368Q426 364 426.0 359.0Q426 354 426 348V315Q426 289 428.0 264.0Q430 239 443 223L521 135Q521 115 531.0 105.0Q541 95 556.0 89.0Q571 83 588.5 80.0Q606 77 621.0 71.5Q636 66 646.0 56.0Q656 46 656 28Q656 25 655.5 19.5Q655 14 653.5 8.5Q652 3 649.0 -1.0Q646 -5 642 -5H547L521 5H497Q475 5 455.5 7.5Q436 10 416.5 13.0Q397 16 376.5 18.5Q356 21 332 21Q322 21 312.0 12.5Q302 4 291 0Q265 -2 238.0 -7.0Q211 -12 184 -12Q176 -12 165.0 -14.5Q154 -17 139 -17Q132 -17 123.5 -16.0Q115 -15 107 -9Q82 1 82 31Z" /><path transform="translate(300.938 0.000) scale(0.15625 -0.15625)" d="M110 0Q98 0 91.5 -4.5Q85 -9 78 -9Q74 -9 68.5 -5.0Q63 -1 52 5Q50 6 49.5 10.5Q49 15 47 21Q45 27 44 36Q44 37 46.5 41.5Q49 46 52.0 51.5Q55 57 58.0 62.0Q61 67 63 69L82 80H104Q127 80 145.5 83.5Q164 87 175 106Q179 140 181.0 171.0Q183 202 191 232L203 279V372L208 462V521Q208 523 206.0 531.5Q204 540 202.0 550.5Q200 561 198.0 570.5Q196 580 196 585V680Q192 691 183.0 707.0Q174 723 165 730L134 740Q117 752 103.5 766.0Q90 780 82 801Q82 812 87.0 818.0Q92 824 100.0 827.0Q108 830 117.0 832.0Q126 834 134 836L208 874Q217 878 223.5 880.5Q230 883 236.0 886.0Q242 889 247.5 893.0Q253 897 260 905L289 907Q294 907 304.5 906.0Q315 905 317 905Q320 905 327.0 904.0Q334 903 342.0 901.0Q350 899 357.0 897.0Q364 895 367 894Q376 890 378.5 877.5Q381 865 381 855V823L374 799Q369 734 369.0 671.0Q369 608 367 541L362 505Q361 504 360.5 498.0Q360 492 360.0 484.0Q360 476 360.0 468.5Q360 461 360 457Q360 450 360.0 441.0Q360 432 360.0 424.0Q360 416 360.5 410.5Q361 405 362 405Q362 402 364.0 391.5Q366 381 367 379V358Q367 355 366.0 342.0Q365 329 364.0 312.5Q363 296 362.5 280.5Q362 265 362 258Q362 249 363.5 229.5Q365 210 367.5 188.0Q370 166 372.0 146.5Q374 127 374 119Q374 108 385.5 101.5Q397 95 404 93Q407 93 416.5 92.0Q426 91 437.0 90.0Q448 89 457.5 88.5Q467 88 471 88Q478 80 482.5 71.0Q487 62 487 48Q487 34 484.5 21.0Q482 8 473 3Q461 -7 446.5 -8.5Q432 -10 416 -10H398L374 0H251Q250 0 238.0 2.5Q226 5 222 5H194ZM139 1325 170 1356 203 1382 213 1403Q225 1412 240.0 1413.5Q255 1415 267 1415H277Q278 1414 283.0 1412.0Q288 1410 293.0 1408.0Q298 1406 302.5 1404.5Q307 1403 309 1403Q313 1401 321.5 1399.5Q330 1398 339.0 1396.5Q348 1395 356.0 1394.5Q364 1394 367 1394Q371 1393 376.0 1382.0Q381 1371 384.5 1357.5Q388 1344 390.5 1331.5Q393 1319 393 1315Q393 1290 387.5 1268.5Q382 1247 362 1230Q361 1229 356.5 1227.5Q352 1226 347.0 1224.5Q342 1223 337.5 1221.5Q333 1220 333 1220Q332 1218 328.0 1213.5Q324 1209 319.0 1204.5Q314 1200 309.0 1196.5Q304 1193 303 1192Q297 1185 285.5 1184.0Q274 1183 264 1183H225Q214 1183 206.0 1184.5Q198 1186 184 1197Q167 1222 152.0 1243.0Q137 1264 137 1296Z" /><path transform="translate(386.562 0.000) scale(0.15625 -0.15625)" d="M57 -7Q54 -7 50.0 -7.0Q46 -7 41 -5H20L8 5V52L31 88Q40 92 52.0 92.5Q64 93 65 93Q69 93 83.5 94.5Q98 96 107 100Q130 95 140 95Q152 104 163.0 119.0Q174 134 182.5 152.0Q191 170 195.5 188.0Q200 206 200 221V332Q200 367 200.5 400.5Q201 434 204 448Q201 475 200.0 501.5Q199 528 197 555L190 659Q187 706 185.0 753.0Q183 800 183 848Q183 853 184.0 855.5Q185 858 193 863Q189 879 188.5 892.0Q188 905 188 920Q188 934 188.5 948.5Q189 963 193 979Q185 984 180.5 994.0Q176 1004 176 1021Q176 1034 184.0 1042.0Q192 1050 192 1066Q192 1088 191.0 1113.0Q190 1138 183 1164Q176 1199 176.0 1220.0Q176 1241 174 1265Q168 1274 153.5 1283.0Q139 1292 122.5 1301.5Q106 1311 91.0 1321.5Q76 1332 70 1344Q62 1360 59.5 1363.5Q57 1367 55 1372Q55 1379 59.0 1392.5Q63 1406 74 1408Q95 1413 117.0 1420.0Q139 1427 150 1429Q152 1429 160.5 1432.5Q169 1436 178.5 1440.5Q188 1445 196.5 1449.5Q205 1454 207 1457Q226 1462 242.5 1468.0Q259 1474 275.0 1479.0Q291 1484 308.5 1488.0Q326 1492 346 1493Q356 1493 363.0 1492.0Q370 1491 370 1484Q374 1458 375.5 1433.5Q377 1409 377 1386Q377 1363 375.5 1339.5Q374 1316 370 1294Q362 1273 360.0 1249.0Q358 1225 358 1201L359 1149L356 1080Q360 1072 361.5 1064.0Q363 1056 363 1043Q363 1023 362.5 1014.0Q362 1005 359 1000L366 936Q362 920 353.0 903.5Q344 887 339 867Q339 856 344.0 847.5Q349 839 351 825Q355 786 355.5 750.0Q356 714 358 675Q353 652 346.5 634.5Q340 617 340 599V583Q341 562 343.0 544.5Q345 527 347.5 510.0Q350 493 352.0 474.5Q354 456 356 432Q356 406 353.5 387.0Q351 368 349 341Q348 335 346.5 324.0Q345 313 343.5 301.5Q342 290 341.0 280.0Q340 270 340 266V265Q341 260 344.0 245.0Q347 230 350.0 214.0Q353 198 356.0 184.0Q359 170 359 166L366 151H368Q371 151 372.0 148.0Q373 145 375 144Q379 140 380.0 135.5Q381 131 384.5 126.5Q388 122 395.5 117.5Q403 113 420 109Q439 97 449 97Q452 97 454.0 97.0Q456 97 461 99Q469 97 480.0 96.0Q491 95 503.0 92.5Q515 90 527.0 85.0Q539 80 548 71Q553 67 554.0 60.5Q555 54 555 43V9Q555 2 553.0 -4.0Q551 -10 545 -12Q537 -10 528.5 -10.0Q520 -10 512 -10Q505 -10 497.0 -9.5Q489 -9 477 -7L446 -3Q444 -3 437.5 -2.5Q431 -2 423.5 -1.5Q416 -1 409.5 -0.5Q403 0 401 0L352 3Q351 3 350 4Q349 4 348.5 4.5Q348 5 347 5Q325 4 307.5 2.0Q290 0 274.5 -2.5Q259 -5 243.5 -7.5Q228 -10 209 -10Q186 -8 159.5 -5.0Q133 -2 110 -2Z" /><path transform="translate(474.219 0.000) scale(0.15625 -0.15625)" d="M57 -7Q54 -7 50.0 -7.0Q46 -7 41 -5H20L8 5V52L31 88Q40 92 52.0 92.5Q64 93 65 93Q69 93 83.5 94.5Q98 96 107 100Q130 95 140 95Q152 104 163.0 119.0Q174 134 182.5 152.0Q191 170 195.5 188.0Q200 206 200 221V332Q200 367 200.5 400.5Q201 434 204 448Q201 475 200.0 501.5Q199 528 197 555L190 659Q187 706 185.0 753.0Q183 800 183 848Q183 853 184.0 855.5Q185 858 193 863Q189 879 188.5 892.0Q188 905 188 920Q188 934 188.5 948.5Q189 963 193 979Q185 984 180.5 994.0Q176 1004 176 1021Q176 1034 184.0 1042.0Q192 1050 192 1066Q192 1088 191.0 1113.0Q190 1138 183 1164Q176 1199 176.0 1220.0Q176 1241 174 1265Q168 1274 153.5 1283.0Q139 1292 122.5 1301.5Q106 1311 91.0 1321.5Q76 1332 70 1344Q62 1360 59.5 1363.5Q57 1367 55 1372Q55 1379 59.0 1392.5Q63 1406 74 1408Q95 1413 117.0 1420.0Q139 1427 150 1429Q152 1429 160.5 1432.5Q169 1436 178.5 1440.5Q188 1445 196.5 1449.5Q205 1454 207 1457Q226 1462 242.5 1468.0Q259 1474 275.0 1479.0Q291 1484 308.5 1488.0Q326 1492 346 1493Q356 1493 363.0 1492.0Q370 1491 370 1484Q374 1458 375.5 1433.5Q377 1409 377 1386Q377 1363 375.5 1339.5Q374 1316 370 1294Q362 1273 360.0 1249.0Q358 1225 358 1201L359 1149L356 1080Q360 1072 361.5 1064.0Q363 1056 363 1043Q363 1023 362.5 1014.0Q362 1005 359 1000L366 936Q362 920 353.0 903.5Q344 887 339 867Q339 856 344.0 847.5Q349 839 351 825Q355 786 355.5 750.0Q356 714 358 675Q353 652 346.5 634.5Q340 617 340 599V583Q341 562 343.0 544.5Q345 527 347.5 510.0Q350 493 352.0 474.5Q354 456 356 432Q356 406 353.5 387.0Q351 368 349 341Q348 335 346.5 324.0Q345 313 343.5 301.5Q342 290 341.0 280.0Q340 270 340 266V265Q341 260 344.0 245.0Q347 230 350.0 214.0Q353 198 356.0 184.0Q359 170 359 166L366 151H368Q371 151 372.0 148.0Q373 145 375 144Q379 140 380.0 135.5Q381 131 384.5 126.5Q388 122 395.5 117.5Q403 113 420 109Q439 97 449 97Q452 97 454.0 97.0Q456 97 461 99Q469 97 480.0 96.0Q491 95 503.0 92.5Q515 90 527.0 85.0Q539 80 548 71Q553 67 554.0 60.5Q555 54 555 43V9Q555 2 553.0 -4.0Q551 -10 545 -12Q537 -10 528.5 -10.0Q520 -10 512 -10Q505 -10 497.0 -9.5Q489 -9 477 -7L446 -3Q444 -3 437.5 -2.5Q431 -2 423.5 -1.5Q416 -1 409.5 -0.5Q403 0 401 0L352 3Q351 3 350 4Q349 4 348.5 4.5Q348 5 347 5Q325 4 307.5 2.0Q290 0 274.5 -2.5Q259 -5 243.5 -7.5Q228 -10 209 -10Q186 -8 159.5 -5.0Q133 -2 110 -2Z" /><path transform="translate(560.312 0.000) scale(0.15625 -0.15625)" d="M64 438Q64 443 66.0 457.5Q68 472 70.5 488.5Q73 505 74.5 520.0Q76 535 76 540Q80 588 97.5 638.0Q115 688 142.0 734.5Q169 781 204.5 820.0Q240 859 282 886Q283 888 292.5 893.0Q302 898 313.0 903.0Q324 908 334.0 913.0Q344 918 346 920Q353 923 364.5 930.5Q376 938 388.0 945.5Q400 953 412.0 959.0Q424 965 434 965Q443 965 448.5 963.0Q454 961 462 957Q479 959 494.5 960.5Q510 962 526 962Q543 962 558.0 960.5Q573 959 590 957Q590 957 594.0 955.5Q598 954 603.0 952.0Q608 950 613.0 948.0Q618 946 621 945Q624 944 633.0 939.5Q642 935 653.0 929.0Q664 923 674.0 918.5Q684 914 688 913Q688 912 695.0 910.0Q702 908 704 908L744 886L834 804Q838 799 846.5 777.5Q855 756 863.5 730.5Q872 705 878.5 682.0Q885 659 885 652Q885 638 877.0 629.5Q869 621 858.0 615.5Q847 610 834.5 607.5Q822 605 813 604H809Q799 603 776.5 602.0Q754 601 729.5 600.5Q705 600 683.5 599.5Q662 599 654 599Q643 594 634.5 593.0Q626 592 617 592L546 599Q526 599 504.5 592.0Q483 585 463 585Q450 585 437.5 594.5Q425 604 410 604Q408 604 399.5 599.5Q391 595 387 595L311 600Q295 600 281.0 594.0Q267 588 249 573Q246 547 245.0 527.5Q244 508 244 484Q244 463 246.5 450.0Q249 437 254.0 425.5Q259 414 266.0 402.5Q273 391 282 374L292 355Q318 298 359.0 263.0Q400 228 465 208Q465 203 479.5 198.5Q494 194 512 192Q533 188 560 187Q593 187 628.0 191.0Q663 195 696.0 204.0Q729 213 758.5 228.0Q788 243 809 265H825Q837 265 841.5 261.5Q846 258 851 242Q848 213 842.5 190.5Q837 168 827.5 150.0Q818 132 803.0 116.5Q788 101 764 85Q756 79 749.0 76.5Q742 74 736.0 72.0Q730 70 723.5 66.0Q717 62 709 52L602 -2L590 0L515 -12Q431 -12 364.0 12.0Q297 36 244.5 80.5Q192 125 153.5 187.0Q115 249 88 324Q79 351 77.0 379.5Q75 408 64 438ZM261 711Q261 706 262.5 696.0Q264 686 267.0 676.0Q270 666 274.0 658.0Q278 650 282 649H313L446 670L531 663Q553 663 570.5 667.0Q588 671 609 676Q628 679 641.5 681.5Q655 684 663.5 691.0Q672 698 676.0 709.5Q680 721 680 742Q680 777 661.0 803.0Q642 829 613.5 846.5Q585 864 551.5 872.5Q518 881 489 881Q482 881 469.0 877.5Q456 874 439.5 868.5Q423 863 405.5 856.5Q388 850 373.5 842.5Q359 835 348.0 828.5Q337 822 334 817L313 772Q307 765 298.0 759.0Q289 753 280.5 746.0Q272 739 266.5 730.5Q261 722 261 711Z" /></g><g class="st2" transform="translate(189.1 970)" aria-hidden="true"><path transform="translate(0.000 0.000) scale(0.15625 -0.15625)" d="M71 62Q71 68 75.0 74.5Q79 81 84.5 87.0Q90 93 95.5 98.0Q101 103 104 106H130Q152 106 173.5 107.5Q195 109 214.5 114.0Q234 119 251.5 131.0Q269 143 284 164L315 202Q320 207 321.0 211.5Q322 216 322 227L315 358Q315 390 325.5 419.0Q336 448 336 476Q336 507 325.5 540.0Q315 573 315 607Q315 615 317.5 620.5Q320 626 322.5 631.5Q325 637 327.5 643.0Q330 649 330 657L320 728L330 823V862L315 889Q313 914 310 937Q308 957 306.0 977.0Q304 997 303 1010L317 1057Q317 1071 311.0 1103.0Q305 1135 295.0 1169.0Q285 1203 273.5 1231.0Q262 1259 251 1265Q234 1270 204.0 1274.5Q174 1279 144.5 1288.5Q115 1298 93.0 1314.0Q71 1330 71 1358Q71 1367 76 1367Q92 1367 104.0 1370.0Q116 1373 126.5 1377.0Q137 1381 147.5 1384.0Q158 1387 171 1387L251 1377L412 1393L445 1382L497 1393Q526 1397 554.0 1398.5Q582 1400 611 1400Q638 1400 665.0 1398.5Q692 1397 718 1393Q739 1382 760.5 1380.5Q782 1379 804 1379Q828 1379 851.0 1377.0Q874 1375 896 1370Q914 1367 943.0 1353.5Q972 1340 1002.5 1321.5Q1033 1303 1058.5 1281.0Q1084 1259 1095 1239Q1104 1216 1111.5 1189.0Q1119 1162 1125.0 1134.5Q1131 1107 1134.5 1079.5Q1138 1052 1138 1028Q1138 1016 1137.5 996.0Q1137 976 1134.5 955.0Q1132 934 1128.0 916.0Q1124 898 1118 889L1088 851L1081 813Q1076 801 1058.5 780.5Q1041 760 1019.5 738.5Q998 717 977.5 699.0Q957 681 945 676Q936 671 923.0 664.5Q910 658 896.0 651.0Q882 644 869.5 638.5Q857 633 849 631L779 626L735 612Q723 612 706.0 615.5Q689 619 673.5 626.0Q658 633 646.5 641.5Q635 650 635 661Q635 677 656 685L772 709Q773 714 779.5 717.5Q786 721 791 723Q826 741 856.0 770.5Q886 800 908.0 836.0Q930 872 942.5 912.5Q955 953 955 995Q953 1003 949.5 1009.5Q946 1016 945 1021Q945 1022 944.0 1023.5Q943 1025 943 1029Q939 1057 934.0 1094.5Q929 1132 919 1159Q915 1169 897.5 1186.5Q880 1204 857.5 1224.0Q835 1244 811.5 1263.5Q788 1283 772 1297L683 1318H604Q595 1313 578.5 1309.0Q562 1305 546.5 1299.0Q531 1293 519.0 1282.5Q507 1272 507 1254V1138Q514 1129 515.0 1124.0Q516 1119 516 1107L507 1069Q507 1067 511.5 1056.5Q516 1046 516 1041V1024L498 972L521 856Q521 847 520.5 841.5Q520 836 516 825V671Q520 662 520.5 654.5Q521 647 521 638L507 580Q507 543 517.0 506.5Q527 470 529 432Q530 404 530.0 374.5Q530 345 531.0 315.5Q532 286 535.0 257.5Q538 229 547 202Q548 195 569.5 180.0Q591 165 618.0 149.5Q645 134 669.5 122.5Q694 111 701 111H732Q743 111 748.0 110.5Q753 110 760 106Q760 105 764.5 101.0Q769 97 775.0 91.5Q781 86 787.5 81.0Q794 76 799 73Q801 68 802.5 65.0Q804 62 804 57V54Q795 34 776.5 23.0Q758 12 736.0 7.0Q714 2 691.0 1.0Q668 0 649 0L573 14Q562 14 551.5 9.5Q541 5 529 5L446 28H434Q426 28 424 26Q381 21 338.0 10.5Q295 0 246 0Q226 0 196.5 1.0Q167 2 139.0 8.0Q111 14 91.0 26.5Q71 39 71 62Z" /><path transform="translate(182.969 0.000) scale(0.15625 -0.15625)" d="M490 118Q486 116 477.5 106.5Q469 97 464 97L426 78Q424 77 419.5 73.5Q415 70 409.5 65.5Q404 61 400.0 57.5Q396 54 395 54Q393 53 387.5 52.0Q382 51 375.5 50.0Q369 49 363.5 48.5Q358 48 355 48Q347 46 340.5 41.0Q334 36 327.5 29.5Q321 23 313.0 16.5Q305 10 295 5H200Q195 5 186.5 7.0Q178 9 168.5 12.0Q159 15 150.0 19.0Q141 23 136 26Q136 28 130.5 35.5Q125 43 124 48Q122 50 121 53Q118 56 118 59L91 85Q83 101 77.5 125.5Q72 150 72 166L79 187L72 208V220Q72 225 74.5 233.5Q77 242 80.0 250.5Q83 259 86.0 266.5Q89 274 91 277Q92 278 98.5 284.5Q105 291 113.0 299.5Q121 308 127.5 315.0Q134 322 136 325Q137 325 143.5 332.0Q150 339 150 341L152 345Q153 347 153 349Q170 360 186.0 372.5Q202 385 222 394Q223 395 236.5 400.5Q250 406 266.5 412.5Q283 419 299.0 424.0Q315 429 323 431Q333 436 344.0 444.0Q355 452 365.5 459.0Q376 466 385.0 471.5Q394 477 400 477H426Q427 477 432 480Q434 481 437 483Q441 484 456.5 486.0Q472 488 477 488L490 505Q497 509 504.0 511.5Q511 514 517.0 517.0Q523 520 527.5 525.5Q532 531 535 541Q542 562 544.5 585.5Q547 609 547 630V652Q547 654 541.0 663.0Q535 672 535 676L523 727L501 754L490 775Q486 777 482.0 785.0Q478 793 477 798Q475 804 462.0 809.5Q449 815 433.0 819.5Q417 824 401.5 826.5Q386 829 380 829Q378 829 364.5 829.5Q351 830 342 830Q333 830 317.5 828.5Q302 827 288.0 822.5Q274 818 263.5 810.0Q253 802 253 789V780Q254 778 257.0 771.5Q260 765 263.0 757.5Q266 750 268.5 743.5Q271 737 271 735Q271 731 268.5 723.5Q266 716 264 708Q257 676 245.0 659.0Q233 642 207 626L195 617Q191 614 188 611H112Q103 611 97.0 618.0Q91 625 87.0 634.5Q83 644 81.0 653.5Q79 663 79 668Q79 674 81.0 684.0Q83 694 87.0 703.5Q91 713 95.5 721.5Q100 730 105 735Q108 742 112 747Q114 752 116.5 755.0Q119 758 120 759L136 775Q158 789 173.0 804.0Q188 819 208 836L278 882Q288 891 296.5 895.5Q305 900 314.0 903.0Q323 906 332.5 908.0Q342 910 355 915Q356 915 360.5 917.0Q365 919 370.0 921.5Q375 924 380.0 926.0Q385 928 387 929Q392 930 406.5 933.0Q421 936 437.5 939.0Q454 942 469.0 944.0Q484 946 490 946Q495 946 499.5 942.5Q504 939 506 939Q509 939 515.0 938.5Q521 938 527.5 937.0Q534 936 539.5 935.5Q545 935 547 934Q553 932 563.0 928.5Q573 925 583.0 921.0Q593 917 601.0 914.0Q609 911 611 910Q612 909 616.0 905.0Q620 901 625.5 895.5Q631 890 636.0 885.0Q641 880 643 877Q654 861 665.5 848.0Q677 835 682 818Q687 808 689.5 796.5Q692 785 694.5 774.0Q697 763 701.0 753.0Q705 743 714 735V673Q714 607 709.5 543.5Q705 480 703 413Q699 403 696.0 393.5Q693 384 693 372Q693 363 695.5 352.0Q698 341 698 336L689 317Q688 313 688 309V298Q688 283 689.0 266.0Q690 249 694.0 232.0Q698 215 705.5 200.0Q713 185 727 175Q732 171 740.5 163.5Q749 156 753 156H757Q767 156 780.0 159.5Q793 163 807.0 167.5Q821 172 835.5 176.0Q850 180 864 180Q883 180 883 168Q883 136 870.5 106.0Q858 76 836.0 52.5Q814 29 785.0 14.5Q756 0 722 0Q688 0 656.0 3.5Q624 7 586 21L579 26Q577 28 569.5 38.5Q562 49 553.5 61.0Q545 73 538.0 83.5Q531 94 530 97L506 118H499ZM264 268Q264 252 269.5 231.0Q275 210 286.0 191.5Q297 173 313.0 160.0Q329 147 349 147Q353 147 356.0 148.0Q359 149 373 156L464 164Q467 166 473.5 172.5Q480 179 486.5 186.0Q493 193 498.5 199.0Q504 205 506 208Q507 208 509.5 214.0Q512 220 516.0 229.0Q520 238 523.5 248.0Q527 258 530 266Q532 271 533.5 281.0Q535 291 535 292Q534 303 533.0 314.0Q532 325 532 336Q532 346 533.0 354.5Q534 363 535 372L542 394V412Q542 429 531.0 443.0Q520 457 499 457Q482 457 470.5 449.5Q459 442 444 431Q439 428 424.0 420.5Q409 413 392.5 405.5Q376 398 361.5 391.0Q347 384 342 382L323 372Q321 372 315.0 370.0Q309 368 309 367L295 341L271 317Q266 306 265.0 291.5Q264 277 264 268Z" /><path transform="translate(321.250 0.000) scale(0.15625 -0.15625)" d="M307 -571Q296 -560 279.5 -556.0Q263 -552 252 -550Q216 -537 181.5 -517.5Q147 -498 121.0 -471.5Q95 -445 79.0 -411.5Q63 -378 63 -337Q63 -325 65.0 -303.5Q67 -282 71.5 -258.5Q76 -235 82.5 -214.0Q89 -193 98 -183Q104 -171 119.5 -163.5Q135 -156 151.0 -148.0Q167 -140 179.0 -129.0Q191 -118 191 -100Q191 -72 176.0 -53.0Q161 -34 142.5 -17.0Q124 0 109.0 19.0Q94 38 94 66Q94 78 95.0 92.5Q96 107 98.5 121.5Q101 136 105.0 149.5Q109 163 115 173Q121 181 129.5 192.5Q138 204 147.5 216.0Q157 228 166.5 238.0Q176 248 184 254Q194 261 203.5 265.0Q213 269 220.5 273.5Q228 278 233.0 283.5Q238 289 238 299Q238 313 232.0 326.0Q226 339 216.5 351.0Q207 363 195.5 375.0Q184 387 172 398L164 407Q157 415 156.0 417.0Q155 419 153 419Q154 420 147.5 437.5Q141 455 133.5 478.0Q126 501 119.5 523.5Q113 546 113 557L115 590Q115 606 122.0 609.5Q129 613 134 619Q132 627 126.0 635.5Q120 644 120 663Q120 664 123.5 670.0Q127 676 129 678Q172 766 211.0 816.5Q250 867 299.5 892.5Q349 918 416.0 924.5Q483 931 582 931H586Q606 923 628.0 917.0Q650 911 669 898L695 875Q712 862 735.0 854.5Q758 847 783 839L817 832Q823 829 831 829H833Q842 829 849.0 835.0Q856 841 862.5 849.0Q869 857 875.5 866.0Q882 875 888 881Q921 908 960.0 929.0Q999 950 1044 950Q1085 950 1108.0 924.0Q1131 898 1131 862Q1131 848 1129.5 831.0Q1128 814 1121.5 799.5Q1115 785 1100.5 775.0Q1086 765 1061 765Q1044 787 1031.0 793.0Q1018 799 1001 799H961Q940 799 921.5 779.0Q903 759 890.0 730.5Q877 702 869.5 672.0Q862 642 862 621L873 540Q873 505 860.5 475.0Q848 445 831 419Q816 399 806.5 375.5Q797 352 776 339L759 332Q721 318 695.0 306.5Q669 295 644.0 287.0Q619 279 589.5 274.5Q560 270 515 270H489L343 280Q287 280 255.5 248.0Q224 216 224 159V147Q232 120 243.0 109.5Q254 99 268.0 96.0Q282 93 298.5 91.5Q315 90 335 80Q355 82 376.0 84.0Q397 86 418 86Q425 86 433.5 85.5Q442 85 451 83H515L572 69H601Q618 69 625.5 70.0Q633 71 644 71Q649 71 655.0 71.0Q661 71 672 69Q685 67 698.0 62.0Q711 57 728 55H797Q808 55 819.5 50.5Q831 46 842.0 40.5Q853 35 862.5 29.5Q872 24 878 22Q891 13 902.5 8.0Q914 3 923.0 -1.5Q932 -6 938.0 -10.5Q944 -15 946 -22Q951 -30 962.0 -43.5Q973 -57 985.0 -75.0Q997 -93 1008.5 -115.5Q1020 -138 1025 -163Q1025 -171 1025.0 -175.5Q1025 -180 1023 -187Q1017 -243 1009.0 -279.5Q1001 -316 986.0 -344.0Q971 -372 946.0 -396.5Q921 -421 880 -453Q848 -478 816.0 -505.0Q784 -532 747 -543L674 -562Q671 -562 664.0 -565.5Q657 -569 655 -571Q625 -573 603.5 -574.5Q582 -576 562.5 -577.5Q543 -579 522.5 -579.5Q502 -580 475 -580Q452 -580 432.5 -579.5Q413 -579 394.0 -577.5Q375 -576 354.5 -574.5Q334 -573 307 -571ZM209 -194Q207 -205 206.0 -214.5Q205 -224 205 -235Q205 -249 207.5 -263.0Q210 -277 215 -294Q215 -295 220.5 -305.0Q226 -315 233.5 -328.5Q241 -342 247.5 -354.5Q254 -367 257 -372Q262 -380 265.0 -389.5Q268 -399 271.0 -408.0Q274 -417 277.0 -423.5Q280 -430 286 -433Q300 -438 320.0 -446.5Q340 -455 350 -460Q366 -467 387.0 -473.5Q408 -480 429.0 -484.5Q450 -489 467.5 -492.0Q485 -495 494 -495Q497 -495 498 -494Q499 -494 499 -493Q515 -497 530.5 -497.5Q546 -498 560 -498Q580 -498 598.0 -497.0Q616 -496 634 -493Q653 -488 673.0 -484.0Q693 -480 710.5 -473.0Q728 -466 741.5 -455.5Q755 -445 762 -426L823 -396Q829 -349 834.5 -307.5Q840 -266 840 -218Q840 -173 817.5 -144.0Q795 -115 761.0 -98.0Q727 -81 687.0 -74.0Q647 -67 612 -66Q564 -64 519.0 -59.5Q474 -55 428 -55Q420 -55 406.5 -54.5Q393 -54 380 -54Q355 -54 333.0 -57.0Q311 -60 295 -71Q290 -76 282.0 -86.0Q274 -96 273 -99Q266 -104 255.5 -108.0Q245 -112 235.5 -118.0Q226 -124 219.0 -131.5Q212 -139 212 -149ZM295 477Q301 466 305.5 460.5Q310 455 315.5 450.5Q321 446 327.0 440.0Q333 434 342 424Q354 408 364.0 389.5Q374 371 386.0 355.0Q398 339 414.0 328.5Q430 318 454 318Q489 318 516.0 326.5Q543 335 564.5 350.5Q586 366 604.0 387.5Q622 409 639 434Q653 451 668.5 464.5Q684 478 688 498Q694 519 697.5 547.5Q701 576 703 599Q696 645 688.0 680.5Q680 716 664.0 742.5Q648 769 619.0 787.5Q590 806 541 817Q524 821 509.0 830.0Q494 839 480 839Q458 839 435.0 828.5Q412 818 391.5 802.5Q371 787 354.5 769.0Q338 751 328 737Q321 715 309.0 701.5Q297 688 286 668V559Q286 538 287.0 519.5Q288 501 295 477Z" /><path transform="translate(494.844 0.000) scale(0.15625 -0.15625)" d="M64 438Q64 443 66.0 457.5Q68 472 70.5 488.5Q73 505 74.5 520.0Q76 535 76 540Q80 588 97.5 638.0Q115 688 142.0 734.5Q169 781 204.5 820.0Q240 859 282 886Q283 888 292.5 893.0Q302 898 313.0 903.0Q324 908 334.0 913.0Q344 918 346 920Q353 923 364.5 930.5Q376 938 388.0 945.5Q400 953 412.0 959.0Q424 965 434 965Q443 965 448.5 963.0Q454 961 462 957Q479 959 494.5 960.5Q510 962 526 962Q543 962 558.0 960.5Q573 959 590 957Q590 957 594.0 955.5Q598 954 603.0 952.0Q608 950 613.0 948.0Q618 946 621 945Q624 944 633.0 939.5Q642 935 653.0 929.0Q664 923 674.0 918.5Q684 914 688 913Q688 912 695.0 910.0Q702 908 704 908L744 886L834 804Q838 799 846.5 777.5Q855 756 863.5 730.5Q872 705 878.5 682.0Q885 659 885 652Q885 638 877.0 629.5Q869 621 858.0 615.5Q847 610 834.5 607.5Q822 605 813 604H809Q799 603 776.5 602.0Q754 601 729.5 600.5Q705 600 683.5 599.5Q662 599 654 599Q643 594 634.5 593.0Q626 592 617 592L546 599Q526 599 504.5 592.0Q483 585 463 585Q450 585 437.5 594.5Q425 604 410 604Q408 604 399.5 599.5Q391 595 387 595L311 600Q295 600 281.0 594.0Q267 588 249 573Q246 547 245.0 527.5Q244 508 244 484Q244 463 246.5 450.0Q249 437 254.0 425.5Q259 414 266.0 402.5Q273 391 282 374L292 355Q318 298 359.0 263.0Q400 228 465 208Q465 203 479.5 198.5Q494 194 512 192Q533 188 560 187Q593 187 628.0 191.0Q663 195 696.0 204.0Q729 213 758.5 228.0Q788 243 809 265H825Q837 265 841.5 261.5Q846 258 851 242Q848 213 842.5 190.5Q837 168 827.5 150.0Q818 132 803.0 116.5Q788 101 764 85Q756 79 749.0 76.5Q742 74 736.0 72.0Q730 70 723.5 66.0Q717 62 709 52L602 -2L590 0L515 -12Q431 -12 364.0 12.0Q297 36 244.5 80.5Q192 125 153.5 187.0Q115 249 88 324Q79 351 77.0 379.5Q75 408 64 438ZM261 711Q261 706 262.5 696.0Q264 686 267.0 676.0Q270 666 274.0 658.0Q278 650 282 649H313L446 670L531 663Q553 663 570.5 667.0Q588 671 609 676Q628 679 641.5 681.5Q655 684 663.5 691.0Q672 698 676.0 709.5Q680 721 680 742Q680 777 661.0 803.0Q642 829 613.5 846.5Q585 864 551.5 872.5Q518 881 489 881Q482 881 469.0 877.5Q456 874 439.5 868.5Q423 863 405.5 856.5Q388 850 373.5 842.5Q359 835 348.0 828.5Q337 822 334 817L313 772Q307 765 298.0 759.0Q289 753 280.5 746.0Q272 739 266.5 730.5Q261 722 261 711Z" /><path transform="translate(641.719 0.000) scale(0.15625 -0.15625)" d="M88 176Q88 188 90.0 211.5Q92 235 97.5 258.0Q103 281 113.0 298.0Q123 315 140 315Q143 315 145.0 304.0Q147 293 149.5 278.5Q152 264 156.0 251.0Q160 238 166 235Q179 229 183.0 226.0Q187 223 190 209L223 161Q228 149 241.0 144.0Q254 139 261 130Q272 114 292.0 106.5Q312 99 337 99L366 104Q367 105 375.5 105.5Q384 106 393.5 107.0Q403 108 411.5 108.5Q420 109 422 109Q427 111 436.0 113.5Q445 116 454.0 119.0Q463 122 470.0 125.0Q477 128 479 130Q480 131 488.0 138.5Q496 146 506.0 156.0Q516 166 526.5 176.5Q537 187 543 194Q551 202 553.0 206.5Q555 211 555 221V230Q555 269 541.0 295.0Q527 321 498 346Q474 368 449.0 380.5Q424 393 397.5 400.0Q371 407 342.0 411.5Q313 416 282 422Q271 423 262.5 429.0Q254 435 246.5 442.5Q239 450 232.0 458.0Q225 466 218 472L157 509Q136 524 125.5 544.5Q115 565 109.5 588.0Q104 611 101.0 635.0Q98 659 93 682L79 714Q79 746 88.0 769.0Q97 792 110 815Q127 819 136.0 833.0Q145 847 157 856Q158 859 164.0 864.5Q170 870 176.0 876.5Q182 883 187.5 889.0Q193 895 193 898Q198 900 205.0 907.0Q212 914 212 919Q215 919 222.0 922.0Q229 925 237.0 929.0Q245 933 252.5 936.5Q260 940 264 941Q266 941 272.5 943.0Q279 945 282 946Q283 946 289.5 950.5Q296 955 299 955Q310 955 320.5 950.5Q331 946 342 946L406 955L486 943L543 919Q554 919 568.0 927.5Q582 936 593 936Q596 936 598 934Q601 934 603.5 932.5Q606 931 609 929Q609 927 611 921Q612 918 614 915Q614 899 606.0 888.5Q598 878 598 865L596 839Q596 831 595.5 823.5Q595 816 590 810Q587 796 587.5 773.0Q588 750 585.0 728.5Q582 707 573.5 691.0Q565 675 546 675L536 692Q533 694 532.0 701.5Q531 709 526 711Q521 715 515.0 725.0Q509 735 503.5 747.5Q498 760 493.5 772.0Q489 784 486 791L472 803Q452 818 436.5 825.0Q421 832 403 846Q399 850 389.5 850.5Q380 851 363 851Q347 851 319.5 844.5Q292 838 265.5 826.0Q239 814 219.5 797.5Q200 781 200 761L205 740Q205 735 200.5 722.0Q196 709 193 702Q193 691 196.0 686.0Q199 681 204.5 678.0Q210 675 216.5 672.0Q223 669 231 661Q236 657 237.5 650.5Q239 644 240.0 637.0Q241 630 242.5 623.0Q244 616 250 611Q261 602 282.5 598.0Q304 594 320 592H375Q395 590 412.5 577.0Q430 564 439 562H498L529 541Q551 527 565.5 513.5Q580 500 590.5 485.0Q601 470 609.0 451.5Q617 433 626 408Q626 408 628.0 404.0Q630 400 632.5 395.5Q635 391 637.0 387.0Q639 383 640 382L631 351Q631 350 633.0 343.5Q635 337 638.0 329.5Q641 322 643.0 314.5Q645 307 645 304V270Q645 254 642.0 233.0Q639 212 633.0 190.5Q627 169 618.0 149.0Q609 129 598 116Q597 114 589.0 106.0Q581 98 571.5 87.5Q562 77 552.5 67.5Q543 58 538 54Q537 53 534.0 51.0Q531 49 527 47Q523 44 517 42L505 26L479 21Q478 21 473.0 20.5Q468 20 462.5 19.0Q457 18 452.0 17.0Q447 16 446 16Q437 13 422.5 4.0Q408 -5 398 -5Q374 -4 363.5 -3.0Q353 -2 340 0H306Q303 1 297.0 2.5Q291 4 284.0 5.5Q277 7 271.0 8.5Q265 10 264 10Q263 11 257.5 13.5Q252 16 245.5 19.0Q239 22 234.0 24.0Q229 26 228 26Q224 28 213.0 29.5Q202 31 200 31L183 40Q171 44 160.0 48.0Q149 52 137.5 58.5Q126 65 113.0 75.5Q100 86 84 102Q83 106 82.0 112.0Q81 118 81 123Q81 139 84.5 153.5Q88 168 88 176Z" /></g></svg>
